#!OML:ASF F:\VICON\USERDATA\INSTALL\rory3\rory3.ASF
:FULLY-SPECIFIED
:DEGREES
1328
root -4.33199 17.8971 1.604 -182.941 171.159 -181.833
lowerback 4.13927 -1.65401 -2.54699
upperback -1.53024 -2.41059 -1.62823
thorax -3.86554 -1.15541 -0.0742775
lowerneck -28.2664 -3.44187 -11.5594
upperneck 22.5178 -1.04155 4.05438
head 12.2046 -0.931898 3.24603
rclavicle 6.36111e-015 -7.95139e-016
rhumerus 28.1253 -57.815 -17.9886
rradius 24.4583
rwrist 6.35464
rhand -35.3299 -13.5077
rfingers 7.12502
rthumb -8.46317 -43.3181
lclavicle 6.36111e-015 -7.95139e-016
lhumerus 42.0705 65.439 34.3412
lradius 21.0344
lwrist -11.8548
lhand -32.1757 40.7406
lfingers 7.12502
lthumb -5.41836 1150.65
rfemur -2.22198 -1.83447 25.8078
rtibia 23.5991
rfoot -13.5492 2.09533
rtoes 15.2454
lfemur -2.25862 -0.83323 -4.99081
ltibia 41.9574
lfoot 6.28427 17.535
ltoes -20.0831
1329
root -4.35082 17.9027 1.6057 -182.944 171.212 -181.848
lowerback 4.27914 -1.62961 -2.44465
upperback -1.55987 -2.37721 -1.59147
thorax -3.97829 -1.13948 -0.0910105
lowerneck -28.0846 -3.38067 -11.5054
upperneck 22.5015 -0.990053 4.0059
head 12.1595 -0.911414 3.227
rclavicle 1.17283e-014 4.29375e-014
rhumerus 29.4359 -57.6755 -18.8003
rradius 24.783
rwrist 6.7963
rhand -35.515 -13.2851
rfingers 7.12502
rthumb -8.64175 -43.0882
lclavicle 1.17283e-014 4.29375e-014
lhumerus 42.7338 64.7167 34.531
lradius 21.5139
lwrist -10.9279
lhand -32.2766 40.694
lfingers 7.12502
lthumb -5.51579 1150.6
rfemur -2.19084 -1.9563 25.8739
rtibia 23.5001
rfoot -13.4169 2.18677
rtoes 15.6155
lfemur -2.65057 -0.690349 -5.00192
ltibia 42.4011
lfoot 6.73814 17.8674
ltoes -19.4633
1330
root -4.36622 17.91 1.61353 -182.891 171.338 -181.743
lowerback 4.26075 -1.59417 -2.45694
upperback -1.5885 -2.32945 -1.55404
thorax -3.9962 -1.11464 -0.0492572
lowerneck -27.829 -3.29764 -11.4939
upperneck 22.4505 -0.893301 3.93514
head 12.0839 -0.876892 3.21337
rclavicle -9.93923e-015 -1.59028e-014
rhumerus 30.714 -57.3566 -19.4868
rradius 25.173
rwrist 7.20087
rhand -35.6736 -13.1824
rfingers 7.12502
rthumb -8.79484 -42.9791
lclavicle -9.93923e-015 -1.59028e-014
lhumerus 43.8356 64.1911 35.2586
lradius 22.0536
lwrist -10.3343
lhand -32.2143 40.6335
lfingers 7.12502
lthumb -5.45564 1150.54
rfemur -2.14085 -2.10938 25.7858
rtibia 23.3584
rfoot -13.1619 2.33871
rtoes 15.8046
lfemur -2.99522 -0.502621 -5.17382
ltibia 42.8032
lfoot 6.8153 18.2966
ltoes -19.3745
1331
root -4.38131 17.9129 1.62033 -182.911 171.486 -181.774
lowerback 4.21755 -1.56179 -2.33232
upperback -1.5375 -2.27315 -1.47564
thorax -3.92104 -1.08998 -0.0443037
lowerneck -27.6931 -3.26318 -11.6139
upperneck 22.4389 -0.822611 3.9685
head 12.0493 -0.851743 3.25771
rclavicle -1.35174e-014 2.06736e-014
rhumerus 31.8339 -56.9609 -19.9541
rradius 25.7077
rwrist 7.33486
rhand -35.9328 -13.1795
rfingers 7.12502
rthumb -9.04499 -42.9656
lclavicle -1.35174e-014 2.06736e-014
lhumerus 44.5717 63.5973 35.6107
lradius 22.7466
lwrist -9.39705
lhand -32.1613 40.277
lfingers 7.12502
lthumb -5.4045 1150.19
rfemur -2.05339 -2.15244 25.8613
rtibia 23.2266
rfoot -12.9719 2.40456
rtoes 15.8914
lfemur -3.2512 -0.270894 -5.17751
ltibia 43.1554
lfoot 6.78903 18.6288
ltoes -20.0787
1332
root -4.39682 17.9139 1.62419 -182.999 171.664 -181.95
lowerback 4.25786 -1.48466 -2.06199
upperback -1.45973 -2.15088 -1.38767
thorax -3.87101 -1.03575 -0.113622
lowerneck -27.6921 -3.26812 -11.658
upperneck 22.5052 -0.815744 3.98574
head 12.0751 -0.852446 3.27421
rclavicle 1.68967e-015 8.74653e-015
rhumerus 32.9229 -56.7857 -20.4542
rradius 26.329
rwrist 7.51784
rhand -36.0567 -12.5568
rfingers 7.12502
rthumb -9.16453 -42.3377
lclavicle 1.68967e-015 8.74653e-015
lhumerus 44.2907 62.5269 34.7594
lradius 23.6004
lwrist -7.70969
lhand -32.2986 39.84
lfingers 7.12502
lthumb -5.53702 1149.75
rfemur -1.9407 -2.01929 26.1332
rtibia 23.1301
rfoot -12.9367 2.3083
rtoes 15.6873
lfemur -3.44377 -0.0723539 -5.01069
ltibia 43.4798
lfoot 6.84116 18.9644
ltoes -20.6444
